<?xml version="1.0" encoding="UTF-8" standalone="no"?>
<svg
   xmlns:dc="http://purl.org/dc/elements/1.1/"
   xmlns:cc="http://creativecommons.org/ns#"
   xmlns:rdf="http://www.w3.org/1999/02/22-rdf-syntax-ns#"
   xmlns:svg="http://www.w3.org/2000/svg"
   xmlns="http://www.w3.org/2000/svg"
   xmlns:sodipodi="http://sodipodi.sourceforge.net/DTD/sodipodi-0.dtd"
   xmlns:inkscape="http://www.inkscape.org/namespaces/inkscape"
   width="250mm"
   height="300mm"
   viewBox="0 0 250 300"
   version="1.1"
   id="svg8"
   inkscape:version="1.0.2-2 (e86c870879, 2021-01-15)"
   sodipodi:docname="Gea Kristek vjezba 2.svg">
  <defs
     id="defs2">
    <rect
       x="170"
       y="160"
       width="170"
       height="110"
       id="rect987" />
    <clipPath
       clipPathUnits="userSpaceOnUse"
       id="clipPath1001">
      <g
         aria-label="GK"
         id="g1005"
         style="font-size:105.833px;line-height:1.25;font-family:GeaKristek;-inkscape-font-specification:GeaKristek;stroke-width:0.264583">
        <path
           id="path1003"
           style="stroke-width:0.264583"
           d="m 93.659617,55.968598 q 8.678303,1.269996 11.641633,3.598322 3.06915,2.328326 3.38665,6.138314 l -0.21166,63.288136 q 1.05833,4.33915 -0.74083,6.13831 -1.69333,1.79916 -5.82082,2.53999 -4.021653,0.74083 -5.291649,1.48167 0,0.10583 1.799161,0 1.904998,-0.10584 4.444988,-0.52917 2.53999,-0.52916 4.97415,-1.27 2.43416,-0.74083 4.02165,-1.90499 1.5875,-1.27 1.27,-2.64582 l 0.84666,-31.7499 24.55326,22.64826 q 0.10583,0.10583 4.33915,2.96332 4.23332,2.75166 8.36081,5.50332 4.12749,2.64582 8.6783,5.29165 4.55082,2.53999 6.34998,2.96332 -1.37582,0 -5.18581,-2.53999 -3.70416,-2.53999 -8.46664,-6.45581 -4.65665,-4.02166 -8.88997,-7.61998 -4.12749,-3.70415 -7.83165,-6.98498 -3.59832,-3.38665 -3.70415,-3.49249 L 114.40288,96.185138 q 4.55082,-6.455813 9.73664,-11.959129 5.29165,-5.609149 11.2183,-10.265801 6.03248,-4.762485 11.00663,-8.149141 4.97415,-3.386656 11.95913,-7.831642 1.90499,-1.164163 2.85749,-1.799161 L 132.81783,73.32521 114.19122,91.528486 113.97955,65.705234 q 0.74083,-3.069157 -0.3175,-4.974151 -0.95249,-2.010827 -4.65665,-2.963324 -3.70415,-0.952497 -5.92665,-1.164163 -2.22249,-0.211666 -7.831638,-0.529165 -1.05833,-0.105833 -1.587495,-0.105833 z M 47.728246,82.85018 q 4.444986,-1.164163 13.546624,-2.328326 9.101638,-1.164163 15.87495,-2.645825 6.773312,-1.481662 9.630803,-3.915821 -1.164163,-4.339153 -7.725809,-7.619976 -6.455813,-3.386656 -15.134119,-5.397483 -12.382461,-1.164163 -19.261606,1.375829 -6.773312,2.539992 -14.710787,10.054135 -1.269996,3.386656 -2.11666,10.794966 -0.740831,7.302477 0.105833,17.144941 0.952497,9.73664 4.23332,16.19245 4.23332,5.07999 8.149141,8.57248 3.915821,3.49249 6.032481,4.86831 2.222493,1.27 5.714982,3.17499 3.598322,1.79917 5.185817,2.75166 4.656652,0.9525 8.360807,-0.52916 3.704155,-1.48166 7.090811,-6.34998 3.386656,-4.86832 4.974151,-7.93748 1.693328,-3.17499 5.079984,-10.68913 0.529165,-1.16416 0.846664,-1.79916 4.23332,8.57247 5.820815,16.61578 1.587495,7.93747 1.164163,12.17079 -0.317499,4.12749 -1.693328,10.15997 -1.269996,6.03248 -1.481662,7.40831 -1.904994,2.85749 -10.5833,4.76249 -8.572473,1.90499 -16.192449,2.43416 -7.619976,0.52916 -8.46664,0.10583 -6.984978,-3.06916 -11.535797,-6.45581 -4.444986,-3.38666 -5.714982,-5.29165 -1.164163,-1.905 -0.529165,-2.2225 5.714982,-2.32832 21.589932,-4.33915 15.980783,-2.01083 17.779944,0.52917 -8.46664,0.42333 -17.462445,1.37583 -8.995805,1.05833 -11.747463,2.11666 -8.784139,1.48166 -1.587495,5.82081 1.693328,0.9525 4.762485,2.43416 2.328326,1.05833 6.455813,1.69333 4.127487,0.635 9.52497,0.52916 5.503316,0 11.112465,-2.53999 5.609149,-2.43416 9.101638,-7.30248 0,-0.21166 0.423332,-1.90499 0.529165,-1.5875 0.634998,-2.22249 0.211666,-0.635 0.634998,-2.54 0.423332,-1.79916 0.529165,-2.85749 0.211666,-1.16416 0.317499,-3.17499 0.211666,-2.11666 0.105833,-3.59832 -0.105833,-1.58749 -0.317499,-3.80999 -0.105833,-2.32832 -0.634998,-4.23332 -0.423332,-2.01082 -1.164163,-4.44498 -0.740831,-2.43416 -1.799161,-4.86832 Q 79.901478,136.50751 58.840711,140 q -9.948302,-2.96332 -18.203276,-9.84247 -8.254974,-6.87914 -9.736636,-10.79497 -3.915821,-4.12748 -5.714982,-11.64163 -1.693328,-7.51414 -1.375829,-14.922448 0.317499,-7.514143 1.164163,-13.546624 0.952497,-6.138314 2.11666,-8.784139 2.010827,-1.587495 4.23332,-4.127487 2.328326,-2.539992 3.915821,-3.915821 1.693328,-1.481662 4.974151,-2.963324 3.386656,-1.481662 9.419137,-2.010827 6.032481,-0.634998 15.239952,-0.317499 16.93328,3.809988 25.823252,12.382461 4.550819,4.444986 3.492489,6.561646 -0.317499,0.740831 -1.375829,0.740831 -4.23332,3.17499 -12.594127,4.127487 -8.254974,0.846664 -18.203276,0.952497 -9.842469,0 -14.287455,0.952497 z" />
      </g>
    </clipPath>
    <clipPath
       clipPathUnits="userSpaceOnUse"
       id="clipPath1007">
      <g
         aria-label="GK"
         id="g1011"
         style="font-size:105.833px;line-height:1.25;font-family:GeaKristek;-inkscape-font-specification:GeaKristek;stroke-width:0.264583">
        <path
           id="path1009"
           style="stroke-width:0.264583"
           d="m 93.659617,55.968598 q 8.678303,1.269996 11.641633,3.598322 3.06915,2.328326 3.38665,6.138314 l -0.21166,63.288136 q 1.05833,4.33915 -0.74083,6.13831 -1.69333,1.79916 -5.82082,2.53999 -4.021653,0.74083 -5.291649,1.48167 0,0.10583 1.799161,0 1.904998,-0.10584 4.444988,-0.52917 2.53999,-0.52916 4.97415,-1.27 2.43416,-0.74083 4.02165,-1.90499 1.5875,-1.27 1.27,-2.64582 l 0.84666,-31.7499 24.55326,22.64826 q 0.10583,0.10583 4.33915,2.96332 4.23332,2.75166 8.36081,5.50332 4.12749,2.64582 8.6783,5.29165 4.55082,2.53999 6.34998,2.96332 -1.37582,0 -5.18581,-2.53999 -3.70416,-2.53999 -8.46664,-6.45581 -4.65665,-4.02166 -8.88997,-7.61998 -4.12749,-3.70415 -7.83165,-6.98498 -3.59832,-3.38665 -3.70415,-3.49249 L 114.40288,96.185138 q 4.55082,-6.455813 9.73664,-11.959129 5.29165,-5.609149 11.2183,-10.265801 6.03248,-4.762485 11.00663,-8.149141 4.97415,-3.386656 11.95913,-7.831642 1.90499,-1.164163 2.85749,-1.799161 L 132.81783,73.32521 114.19122,91.528486 113.97955,65.705234 q 0.74083,-3.069157 -0.3175,-4.974151 -0.95249,-2.010827 -4.65665,-2.963324 -3.70415,-0.952497 -5.92665,-1.164163 -2.22249,-0.211666 -7.831638,-0.529165 -1.05833,-0.105833 -1.587495,-0.105833 z M 47.728246,82.85018 q 4.444986,-1.164163 13.546624,-2.328326 9.101638,-1.164163 15.87495,-2.645825 6.773312,-1.481662 9.630803,-3.915821 -1.164163,-4.339153 -7.725809,-7.619976 -6.455813,-3.386656 -15.134119,-5.397483 -12.382461,-1.164163 -19.261606,1.375829 -6.773312,2.539992 -14.710787,10.054135 -1.269996,3.386656 -2.11666,10.794966 -0.740831,7.302477 0.105833,17.144941 0.952497,9.73664 4.23332,16.19245 4.23332,5.07999 8.149141,8.57248 3.915821,3.49249 6.032481,4.86831 2.222493,1.27 5.714982,3.17499 3.598322,1.79917 5.185817,2.75166 4.656652,0.9525 8.360807,-0.52916 3.704155,-1.48166 7.090811,-6.34998 3.386656,-4.86832 4.974151,-7.93748 1.693328,-3.17499 5.079984,-10.68913 0.529165,-1.16416 0.846664,-1.79916 4.23332,8.57247 5.820815,16.61578 1.587495,7.93747 1.164163,12.17079 -0.317499,4.12749 -1.693328,10.15997 -1.269996,6.03248 -1.481662,7.40831 -1.904994,2.85749 -10.5833,4.76249 -8.572473,1.90499 -16.192449,2.43416 -7.619976,0.52916 -8.46664,0.10583 -6.984978,-3.06916 -11.535797,-6.45581 -4.444986,-3.38666 -5.714982,-5.29165 -1.164163,-1.905 -0.529165,-2.2225 5.714982,-2.32832 21.589932,-4.33915 15.980783,-2.01083 17.779944,0.52917 -8.46664,0.42333 -17.462445,1.37583 -8.995805,1.05833 -11.747463,2.11666 -8.784139,1.48166 -1.587495,5.82081 1.693328,0.9525 4.762485,2.43416 2.328326,1.05833 6.455813,1.69333 4.127487,0.635 9.52497,0.52916 5.503316,0 11.112465,-2.53999 5.609149,-2.43416 9.101638,-7.30248 0,-0.21166 0.423332,-1.90499 0.529165,-1.5875 0.634998,-2.22249 0.211666,-0.635 0.634998,-2.54 0.423332,-1.79916 0.529165,-2.85749 0.211666,-1.16416 0.317499,-3.17499 0.211666,-2.11666 0.105833,-3.59832 -0.105833,-1.58749 -0.317499,-3.80999 -0.105833,-2.32832 -0.634998,-4.23332 -0.423332,-2.01082 -1.164163,-4.44498 -0.740831,-2.43416 -1.799161,-4.86832 Q 79.901478,136.50751 58.840711,140 q -9.948302,-2.96332 -18.203276,-9.84247 -8.254974,-6.87914 -9.736636,-10.79497 -3.915821,-4.12748 -5.714982,-11.64163 -1.693328,-7.51414 -1.375829,-14.922448 0.317499,-7.514143 1.164163,-13.546624 0.952497,-6.138314 2.11666,-8.784139 2.010827,-1.587495 4.23332,-4.127487 2.328326,-2.539992 3.915821,-3.915821 1.693328,-1.481662 4.974151,-2.963324 3.386656,-1.481662 9.419137,-2.010827 6.032481,-0.634998 15.239952,-0.317499 16.93328,3.809988 25.823252,12.382461 4.550819,4.444986 3.492489,6.561646 -0.317499,0.740831 -1.375829,0.740831 -4.23332,3.17499 -12.594127,4.127487 -8.254974,0.846664 -18.203276,0.952497 -9.842469,0 -14.287455,0.952497 z" />
      </g>
    </clipPath>
    <clipPath
       clipPathUnits="userSpaceOnUse"
       id="clipPath1013">
      <g
         aria-label="GK"
         id="g1017"
         style="font-size:105.833px;line-height:1.25;font-family:GeaKristek;-inkscape-font-specification:GeaKristek;stroke-width:0.264583">
        <path
           id="path1015"
           style="stroke-width:0.264583"
           d="m 93.659617,55.968598 q 8.678303,1.269996 11.641633,3.598322 3.06915,2.328326 3.38665,6.138314 l -0.21166,63.288136 q 1.05833,4.33915 -0.74083,6.13831 -1.69333,1.79916 -5.82082,2.53999 -4.021653,0.74083 -5.291649,1.48167 0,0.10583 1.799161,0 1.904998,-0.10584 4.444988,-0.52917 2.53999,-0.52916 4.97415,-1.27 2.43416,-0.74083 4.02165,-1.90499 1.5875,-1.27 1.27,-2.64582 l 0.84666,-31.7499 24.55326,22.64826 q 0.10583,0.10583 4.33915,2.96332 4.23332,2.75166 8.36081,5.50332 4.12749,2.64582 8.6783,5.29165 4.55082,2.53999 6.34998,2.96332 -1.37582,0 -5.18581,-2.53999 -3.70416,-2.53999 -8.46664,-6.45581 -4.65665,-4.02166 -8.88997,-7.61998 -4.12749,-3.70415 -7.83165,-6.98498 -3.59832,-3.38665 -3.70415,-3.49249 L 114.40288,96.185138 q 4.55082,-6.455813 9.73664,-11.959129 5.29165,-5.609149 11.2183,-10.265801 6.03248,-4.762485 11.00663,-8.149141 4.97415,-3.386656 11.95913,-7.831642 1.90499,-1.164163 2.85749,-1.799161 L 132.81783,73.32521 114.19122,91.528486 113.97955,65.705234 q 0.74083,-3.069157 -0.3175,-4.974151 -0.95249,-2.010827 -4.65665,-2.963324 -3.70415,-0.952497 -5.92665,-1.164163 -2.22249,-0.211666 -7.831638,-0.529165 -1.05833,-0.105833 -1.587495,-0.105833 z M 47.728246,82.85018 q 4.444986,-1.164163 13.546624,-2.328326 9.101638,-1.164163 15.87495,-2.645825 6.773312,-1.481662 9.630803,-3.915821 -1.164163,-4.339153 -7.725809,-7.619976 -6.455813,-3.386656 -15.134119,-5.397483 -12.382461,-1.164163 -19.261606,1.375829 -6.773312,2.539992 -14.710787,10.054135 -1.269996,3.386656 -2.11666,10.794966 -0.740831,7.302477 0.105833,17.144941 0.952497,9.73664 4.23332,16.19245 4.23332,5.07999 8.149141,8.57248 3.915821,3.49249 6.032481,4.86831 2.222493,1.27 5.714982,3.17499 3.598322,1.79917 5.185817,2.75166 4.656652,0.9525 8.360807,-0.52916 3.704155,-1.48166 7.090811,-6.34998 3.386656,-4.86832 4.974151,-7.93748 1.693328,-3.17499 5.079984,-10.68913 0.529165,-1.16416 0.846664,-1.79916 4.23332,8.57247 5.820815,16.61578 1.587495,7.93747 1.164163,12.17079 -0.317499,4.12749 -1.693328,10.15997 -1.269996,6.03248 -1.481662,7.40831 -1.904994,2.85749 -10.5833,4.76249 -8.572473,1.90499 -16.192449,2.43416 -7.619976,0.52916 -8.46664,0.10583 -6.984978,-3.06916 -11.535797,-6.45581 -4.444986,-3.38666 -5.714982,-5.29165 -1.164163,-1.905 -0.529165,-2.2225 5.714982,-2.32832 21.589932,-4.33915 15.980783,-2.01083 17.779944,0.52917 -8.46664,0.42333 -17.462445,1.37583 -8.995805,1.05833 -11.747463,2.11666 -8.784139,1.48166 -1.587495,5.82081 1.693328,0.9525 4.762485,2.43416 2.328326,1.05833 6.455813,1.69333 4.127487,0.635 9.52497,0.52916 5.503316,0 11.112465,-2.53999 5.609149,-2.43416 9.101638,-7.30248 0,-0.21166 0.423332,-1.90499 0.529165,-1.5875 0.634998,-2.22249 0.211666,-0.635 0.634998,-2.54 0.423332,-1.79916 0.529165,-2.85749 0.211666,-1.16416 0.317499,-3.17499 0.211666,-2.11666 0.105833,-3.59832 -0.105833,-1.58749 -0.317499,-3.80999 -0.105833,-2.32832 -0.634998,-4.23332 -0.423332,-2.01082 -1.164163,-4.44498 -0.740831,-2.43416 -1.799161,-4.86832 Q 79.901478,136.50751 58.840711,140 q -9.948302,-2.96332 -18.203276,-9.84247 -8.254974,-6.87914 -9.736636,-10.79497 -3.915821,-4.12748 -5.714982,-11.64163 -1.693328,-7.51414 -1.375829,-14.922448 0.317499,-7.514143 1.164163,-13.546624 0.952497,-6.138314 2.11666,-8.784139 2.010827,-1.587495 4.23332,-4.127487 2.328326,-2.539992 3.915821,-3.915821 1.693328,-1.481662 4.974151,-2.963324 3.386656,-1.481662 9.419137,-2.010827 6.032481,-0.634998 15.239952,-0.317499 16.93328,3.809988 25.823252,12.382461 4.550819,4.444986 3.492489,6.561646 -0.317499,0.740831 -1.375829,0.740831 -4.23332,3.17499 -12.594127,4.127487 -8.254974,0.846664 -18.203276,0.952497 -9.842469,0 -14.287455,0.952497 z" />
      </g>
    </clipPath>
  </defs>
  <sodipodi:namedview
     id="base"
     pagecolor="#ffffff"
     bordercolor="#666666"
     borderopacity="1.0"
     inkscape:pageopacity="0.0"
     inkscape:pageshadow="2"
     inkscape:zoom="0.98994949"
     inkscape:cx="314.07574"
     inkscape:cy="612.99693"
     inkscape:document-units="mm"
     inkscape:current-layer="layer1"
     inkscape:document-rotation="0"
     showgrid="true"
     inkscape:pagecheckerboard="false"
     inkscape:window-width="1251"
     inkscape:window-height="1040"
     inkscape:window-x="182"
     inkscape:window-y="0"
     inkscape:window-maximized="0">
    <inkscape:grid
       type="xygrid"
       id="grid10"
       units="mm"
       spacingx="0.99999999"
       spacingy="0.99999999"
       empspacing="10" />
  </sodipodi:namedview>
  <metadata
     id="metadata5">
    <rdf:RDF>
      <cc:Work
         rdf:about="">
        <dc:format>image/svg+xml</dc:format>
        <dc:type
           rdf:resource="http://purl.org/dc/dcmitype/StillImage" />
        <dc:title />
      </cc:Work>
    </rdf:RDF>
  </metadata>
  <g
     inkscape:label="Sloj 1"
     inkscape:groupmode="layer"
     id="layer1"
     style="opacity:1">
    <path
       style="fill:none;stroke:#000000;stroke-width:2.11667;stroke-linecap:butt;stroke-linejoin:miter;stroke-miterlimit:4;stroke-dasharray:none;stroke-opacity:0.5"
       d="M 49.999999,170 C 0,130 0,70.000005 50,30.000006"
       id="path843"
       sodipodi:nodetypes="cc"
       inkscape:label="krivulja1"
       clip-path="url(#clipPath1013)" />
    <path
       style="fill:none;stroke:#000000;stroke-width:0.705556;stroke-linecap:butt;stroke-linejoin:miter;stroke-miterlimit:4;stroke-dasharray:none;stroke-opacity:0.5"
       d="M 190,170 C 240,120 89.999999,110 190,30.000006"
       id="path847"
       sodipodi:nodetypes="cc"
       inkscape:label="krivulja2"
       clip-path="url(#clipPath1007)" />
    <g
       id="g935"
       inkscape:label="blerd"
       clip-path="url(#clipPath1001)">
      <path
         style="opacity:1;fill:none;fill-opacity:1;stroke:#000000;stroke-width:2.08225px;stroke-linecap:butt;stroke-linejoin:miter;stroke-miterlimit:4;stroke-dasharray:none;stroke-opacity:0.5"
         d="M 53.4146,170 C 5.85366,129.756 2.19512,70.9756 53.4146,30"
         id="path855" />
      <path
         style="opacity:1;fill:none;fill-opacity:1;stroke:#000000;stroke-width:2.04783px;stroke-linecap:butt;stroke-linejoin:miter;stroke-miterlimit:4;stroke-dasharray:none;stroke-opacity:0.5"
         d="m 56.8293,170 c -45.122,-40.488 -52.43906,-98.0488 0,-140"
         id="path857" />
      <path
         style="opacity:1;fill:none;fill-opacity:1;stroke:#000000;stroke-width:2.01341px;stroke-linecap:butt;stroke-linejoin:miter;stroke-miterlimit:4;stroke-dasharray:none;stroke-opacity:0.5"
         d="M 60.2439,170 C 17.561,129.268 6.58537,72.9268 60.2439,30"
         id="path859" />
      <path
         style="opacity:1;fill:none;fill-opacity:1;stroke:#000000;stroke-width:1.979px;stroke-linecap:butt;stroke-linejoin:miter;stroke-miterlimit:4;stroke-dasharray:none;stroke-opacity:0.5"
         d="M 63.6585,170 C 23.4146,129.024 8.78049,73.9024 63.6585,30"
         id="path861" />
      <path
         style="opacity:1;fill:none;fill-opacity:1;stroke:#000000;stroke-width:1.94458px;stroke-linecap:butt;stroke-linejoin:miter;stroke-miterlimit:4;stroke-dasharray:none;stroke-opacity:0.5"
         d="m 67.0732,170 c -37.8049,-41.22 -56.0976,-95.1219 0,-140"
         id="path863" />
      <path
         style="opacity:1;fill:none;fill-opacity:1;stroke:#000000;stroke-width:1.91016px;stroke-linecap:butt;stroke-linejoin:miter;stroke-miterlimit:4;stroke-dasharray:none;stroke-opacity:0.5"
         d="M 70.4878,170 C 35.122,128.537 13.1707,75.8537 70.4878,30"
         id="path865" />
      <path
         style="opacity:1;fill:none;fill-opacity:1;stroke:#000000;stroke-width:1.87575px;stroke-linecap:butt;stroke-linejoin:miter;stroke-miterlimit:4;stroke-dasharray:none;stroke-opacity:0.5"
         d="m 73.9024,170 c -32.9268,-41.707 -58.5365,-93.1707 0,-140"
         id="path867" />
      <path
         style="opacity:1;fill:none;fill-opacity:1;stroke:#000000;stroke-width:1.84133px;stroke-linecap:butt;stroke-linejoin:miter;stroke-miterlimit:4;stroke-dasharray:none;stroke-opacity:0.5"
         d="M 77.3171,170 C 46.8293,128.049 17.561,77.8049 77.3171,30"
         id="path869" />
      <path
         style="opacity:1;fill:none;fill-opacity:1;stroke:#000000;stroke-width:1.80691px;stroke-linecap:butt;stroke-linejoin:miter;stroke-miterlimit:4;stroke-dasharray:none;stroke-opacity:0.5"
         d="m 80.7317,170 c -28.0488,-42.195 -60.9756,-91.2195 0,-140"
         id="path871" />
      <path
         style="opacity:1;fill:none;fill-opacity:1;stroke:#000000;stroke-width:1.77249px;stroke-linecap:butt;stroke-linejoin:miter;stroke-miterlimit:4;stroke-dasharray:none;stroke-opacity:0.5"
         d="m 84.1463,170 c -25.6097,-42.439 -62.1951,-90.2439 0,-140"
         id="path873" />
      <path
         style="opacity:1;fill:none;fill-opacity:1;stroke:#000000;stroke-width:1.73808px;stroke-linecap:butt;stroke-linejoin:miter;stroke-miterlimit:4;stroke-dasharray:none;stroke-opacity:0.5"
         d="M 87.561,170 C 64.3902,127.317 24.1463,80.7317 87.561,30"
         id="path875" />
      <path
         style="opacity:1;fill:none;fill-opacity:1;stroke:#000000;stroke-width:1.70366px;stroke-linecap:butt;stroke-linejoin:miter;stroke-miterlimit:4;stroke-dasharray:none;stroke-opacity:0.5"
         d="m 90.9756,170 c -20.7317,-42.927 -64.6341,-88.2927 0,-140"
         id="path877" />
      <path
         style="opacity:1;fill:none;fill-opacity:1;stroke:#000000;stroke-width:1.66924px;stroke-linecap:butt;stroke-linejoin:miter;stroke-miterlimit:4;stroke-dasharray:none;stroke-opacity:0.5"
         d="m 94.3902,170 c -18.2926,-43.171 -65.8536,-87.3171 0,-140"
         id="path879" />
      <path
         style="opacity:1;fill:none;fill-opacity:1;stroke:#000000;stroke-width:1.63482px;stroke-linecap:butt;stroke-linejoin:miter;stroke-miterlimit:4;stroke-dasharray:none;stroke-opacity:0.5"
         d="m 97.8049,170 c -15.8537,-43.415 -67.0732,-86.3415 0,-140"
         id="path881" />
      <path
         style="opacity:1;fill:none;fill-opacity:1;stroke:#000000;stroke-width:1.60041px;stroke-linecap:butt;stroke-linejoin:miter;stroke-miterlimit:4;stroke-dasharray:none;stroke-opacity:0.5"
         d="M 101.22,170 C 87.8049,126.341 32.9268,84.6341 101.22,30"
         id="path883" />
      <path
         style="opacity:1;fill:none;fill-opacity:1;stroke:#000000;stroke-width:1.56599px;stroke-linecap:butt;stroke-linejoin:miter;stroke-miterlimit:4;stroke-dasharray:none;stroke-opacity:0.5"
         d="m 104.634,170 c -10.9755,-43.902 -69.512,-84.3902 0,-140"
         id="path885" />
      <path
         style="opacity:1;fill:none;fill-opacity:1;stroke:#000000;stroke-width:1.53157px;stroke-linecap:butt;stroke-linejoin:miter;stroke-miterlimit:4;stroke-dasharray:none;stroke-opacity:0.5"
         d="m 108.049,170 c -8.5368,-44.146 -70.7319,-83.4146 0,-140"
         id="path887" />
      <path
         style="opacity:1;fill:none;fill-opacity:1;stroke:#000000;stroke-width:1.49715px;stroke-linecap:butt;stroke-linejoin:miter;stroke-miterlimit:4;stroke-dasharray:none;stroke-opacity:0.5"
         d="m 111.463,170 c -6.097,-44.39 -71.9508,-82.439 0,-140"
         id="path889" />
      <path
         style="opacity:1;fill:none;fill-opacity:1;stroke:#000000;stroke-width:1.46274px;stroke-linecap:butt;stroke-linejoin:miter;stroke-miterlimit:4;stroke-dasharray:none;stroke-opacity:0.5"
         d="m 114.878,170 c -3.658,-44.634 -73.1707,-81.4634 0,-140"
         id="path891" />
      <path
         style="opacity:1;fill:none;fill-opacity:1;stroke:#000000;stroke-width:1.42832px;stroke-linecap:butt;stroke-linejoin:miter;stroke-miterlimit:4;stroke-dasharray:none;stroke-opacity:0.5"
         d="m 118.293,170 c -1.22,-44.878 -74.3906,-80.4878 0,-140"
         id="path893" />
      <path
         style="opacity:1;fill:none;fill-opacity:1;stroke:#000000;stroke-width:1.3939px;stroke-linecap:butt;stroke-linejoin:miter;stroke-miterlimit:4;stroke-dasharray:none;stroke-opacity:0.5"
         d="m 121.707,170 c 1.22,-45.122 -75.6094,-79.5122 0,-140"
         id="path895" />
      <path
         style="opacity:1;fill:none;fill-opacity:1;stroke:#000000;stroke-width:1.35949px;stroke-linecap:butt;stroke-linejoin:miter;stroke-miterlimit:4;stroke-dasharray:none;stroke-opacity:0.5"
         d="m 125.122,170 c 3.658,-45.366 -76.8293,-78.5366 0,-140"
         id="path897" />
      <path
         style="opacity:1;fill:none;fill-opacity:1;stroke:#000000;stroke-width:1.32507px;stroke-linecap:butt;stroke-linejoin:miter;stroke-miterlimit:4;stroke-dasharray:none;stroke-opacity:0.5"
         d="m 128.537,170 c 6.097,-45.61 -78.0492,-77.561 0,-140"
         id="path899" />
      <path
         style="opacity:1;fill:none;fill-opacity:1;stroke:#000000;stroke-width:1.29065px;stroke-linecap:butt;stroke-linejoin:miter;stroke-miterlimit:4;stroke-dasharray:none;stroke-opacity:0.5"
         d="m 131.951,170 c 8.537,-45.854 -79.2681,-76.5854 0,-140"
         id="path901" />
      <path
         style="opacity:1;fill:none;fill-opacity:1;stroke:#000000;stroke-width:1.25623px;stroke-linecap:butt;stroke-linejoin:miter;stroke-miterlimit:4;stroke-dasharray:none;stroke-opacity:0.5"
         d="m 135.366,170 c 10.975,-46.098 -80.488,-75.6098 0,-140"
         id="path903" />
      <path
         style="opacity:1;fill:none;fill-opacity:1;stroke:#000000;stroke-width:1.22182px;stroke-linecap:butt;stroke-linejoin:miter;stroke-miterlimit:4;stroke-dasharray:none;stroke-opacity:0.5"
         d="m 138.78,170 c 13.415,-46.341 -81.7068,-74.6341 0,-140"
         id="path905" />
      <path
         style="opacity:1;fill:none;fill-opacity:1;stroke:#000000;stroke-width:1.1874px;stroke-linecap:butt;stroke-linejoin:miter;stroke-miterlimit:4;stroke-dasharray:none;stroke-opacity:0.5"
         d="m 142.195,170 c 15.854,-46.585 -82.9267,-73.6585 0,-140"
         id="path907" />
      <path
         style="opacity:1;fill:none;fill-opacity:1;stroke:#000000;stroke-width:1.15298px;stroke-linecap:butt;stroke-linejoin:miter;stroke-miterlimit:4;stroke-dasharray:none;stroke-opacity:0.5"
         d="m 145.61,170 c 18.292,-46.829 -84.1466,-72.6829 0,-140"
         id="path909" />
      <path
         style="opacity:1;fill:none;fill-opacity:1;stroke:#000000;stroke-width:1.11856px;stroke-linecap:butt;stroke-linejoin:miter;stroke-miterlimit:4;stroke-dasharray:none;stroke-opacity:0.5"
         d="m 149.024,170 c 20.732,-47.073 -85.3655,-71.7073 0,-140"
         id="path911" />
      <path
         style="opacity:1;fill:none;fill-opacity:1;stroke:#000000;stroke-width:1.08415px;stroke-linecap:butt;stroke-linejoin:miter;stroke-miterlimit:4;stroke-dasharray:none;stroke-opacity:0.5"
         d="m 152.439,170 c 23.171,-47.317 -86.5853,-70.7317 0,-140"
         id="path913" />
      <path
         style="opacity:1;fill:none;fill-opacity:1;stroke:#000000;stroke-width:1.04973px;stroke-linecap:butt;stroke-linejoin:miter;stroke-miterlimit:4;stroke-dasharray:none;stroke-opacity:0.5"
         d="m 155.854,170 c 25.609,-47.561 -87.8052,-69.756 0,-140"
         id="path915" />
      <path
         style="opacity:1;fill:none;fill-opacity:1;stroke:#000000;stroke-width:1.01531px;stroke-linecap:butt;stroke-linejoin:miter;stroke-miterlimit:4;stroke-dasharray:none;stroke-opacity:0.5"
         d="m 159.268,170 c 28.049,-47.805 -89.0241,-68.78 0,-140"
         id="path917" />
      <path
         style="opacity:1;fill:none;fill-opacity:1;stroke:#000000;stroke-width:0.980894px;stroke-linecap:butt;stroke-linejoin:miter;stroke-miterlimit:4;stroke-dasharray:none;stroke-opacity:0.5"
         d="m 162.683,170 c 30.488,-48.049 -90.244,-67.805 0,-140"
         id="path919" />
      <path
         style="opacity:1;fill:none;fill-opacity:1;stroke:#000000;stroke-width:0.946477px;stroke-linecap:butt;stroke-linejoin:miter;stroke-miterlimit:4;stroke-dasharray:none;stroke-opacity:0.5"
         d="m 166.098,170 c 32.926,-48.293 -91.4639,-66.829 0,-140"
         id="path921" />
      <path
         style="opacity:1;fill:none;fill-opacity:1;stroke:#000000;stroke-width:0.91206px;stroke-linecap:butt;stroke-linejoin:miter;stroke-miterlimit:4;stroke-dasharray:none;stroke-opacity:0.5"
         d="m 169.512,170 c 35.366,-48.537 -92.6827,-65.854 0,-140"
         id="path923" />
      <path
         style="opacity:1;fill:none;fill-opacity:1;stroke:#000000;stroke-width:0.877642px;stroke-linecap:butt;stroke-linejoin:miter;stroke-miterlimit:4;stroke-dasharray:none;stroke-opacity:0.5"
         d="m 172.927,170 c 37.805,-48.78 -93.9026,-64.878 0,-140"
         id="path925" />
      <path
         style="opacity:1;fill:none;fill-opacity:1;stroke:#000000;stroke-width:0.843225px;stroke-linecap:butt;stroke-linejoin:miter;stroke-miterlimit:4;stroke-dasharray:none;stroke-opacity:0.5"
         d="m 176.341,170 c 40.244,-49.024 -95.1215,-63.902 0,-140"
         id="path927" />
      <path
         style="opacity:1;fill:none;fill-opacity:1;stroke:#000000;stroke-width:0.808808px;stroke-linecap:butt;stroke-linejoin:miter;stroke-miterlimit:4;stroke-dasharray:none;stroke-opacity:0.5"
         d="m 179.756,170 c 42.683,-49.268 -96.3414,-62.927 0,-140"
         id="path929" />
      <path
         style="opacity:1;fill:none;fill-opacity:1;stroke:#000000;stroke-width:0.77439px;stroke-linecap:butt;stroke-linejoin:miter;stroke-miterlimit:4;stroke-dasharray:none;stroke-opacity:0.5"
         d="m 183.171,170 c 45.122,-49.512 -97.5612,-61.951 0,-140"
         id="path931" />
      <path
         style="opacity:1;fill:none;fill-opacity:1;stroke:#000000;stroke-width:0.739973px;stroke-linecap:butt;stroke-linejoin:miter;stroke-miterlimit:4;stroke-dasharray:none;stroke-opacity:0.5"
         d="m 186.585,170 c 47.561,-49.756 -98.7801,-60.976 0,-140"
         id="path933" />
    </g>
    <g
       aria-label="GK"
       id="g999"
       style="font-size:105.833px;line-height:1.25;font-family:GeaKristek;-inkscape-font-specification:GeaKristek;display:inline;stroke-width:2.82222222;fill:none;stroke:#000000;stroke-opacity:0.30000001;stroke-miterlimit:4;stroke-dasharray:none"
       inkscape:label="tekst">
      <path
         id="path997"
         style="stroke-width:2.82222222;fill:none;stroke:#000000;stroke-opacity:0.30000001;stroke-miterlimit:4;stroke-dasharray:none"
         d="m 93.659617,55.968598 q 8.678303,1.269996 11.641633,3.598322 3.06915,2.328326 3.38665,6.138314 l -0.21166,63.288136 q 1.05833,4.33915 -0.74083,6.13831 -1.69333,1.79916 -5.82082,2.53999 -4.021653,0.74083 -5.291649,1.48167 0,0.10583 1.799161,0 1.904998,-0.10584 4.444988,-0.52917 2.53999,-0.52916 4.97415,-1.27 2.43416,-0.74083 4.02165,-1.90499 1.5875,-1.27 1.27,-2.64582 l 0.84666,-31.7499 24.55326,22.64826 q 0.10583,0.10583 4.33915,2.96332 4.23332,2.75166 8.36081,5.50332 4.12749,2.64582 8.6783,5.29165 4.55082,2.53999 6.34998,2.96332 -1.37582,0 -5.18581,-2.53999 -3.70416,-2.53999 -8.46664,-6.45581 -4.65665,-4.02166 -8.88997,-7.61998 -4.12749,-3.70415 -7.83165,-6.98498 -3.59832,-3.38665 -3.70415,-3.49249 L 114.40288,96.185138 q 4.55082,-6.455813 9.73664,-11.959129 5.29165,-5.609149 11.2183,-10.265801 6.03248,-4.762485 11.00663,-8.149141 4.97415,-3.386656 11.95913,-7.831642 1.90499,-1.164163 2.85749,-1.799161 L 132.81783,73.32521 114.19122,91.528486 113.97955,65.705234 q 0.74083,-3.069157 -0.3175,-4.974151 -0.95249,-2.010827 -4.65665,-2.963324 -3.70415,-0.952497 -5.92665,-1.164163 -2.22249,-0.211666 -7.831638,-0.529165 -1.05833,-0.105833 -1.587495,-0.105833 z M 47.728246,82.85018 q 4.444986,-1.164163 13.546624,-2.328326 9.101638,-1.164163 15.87495,-2.645825 6.773312,-1.481662 9.630803,-3.915821 -1.164163,-4.339153 -7.725809,-7.619976 -6.455813,-3.386656 -15.134119,-5.397483 -12.382461,-1.164163 -19.261606,1.375829 -6.773312,2.539992 -14.710787,10.054135 -1.269996,3.386656 -2.11666,10.794966 -0.740831,7.302477 0.105833,17.144941 0.952497,9.73664 4.23332,16.19245 4.23332,5.07999 8.149141,8.57248 3.915821,3.49249 6.032481,4.86831 2.222493,1.27 5.714982,3.17499 3.598322,1.79917 5.185817,2.75166 4.656652,0.9525 8.360807,-0.52916 3.704155,-1.48166 7.090811,-6.34998 3.386656,-4.86832 4.974151,-7.93748 1.693328,-3.17499 5.079984,-10.68913 0.529165,-1.16416 0.846664,-1.79916 4.23332,8.57247 5.820815,16.61578 1.587495,7.93747 1.164163,12.17079 -0.317499,4.12749 -1.693328,10.15997 -1.269996,6.03248 -1.481662,7.40831 -1.904994,2.85749 -10.5833,4.76249 -8.572473,1.90499 -16.192449,2.43416 -7.619976,0.52916 -8.46664,0.10583 -6.984978,-3.06916 -11.535797,-6.45581 -4.444986,-3.38666 -5.714982,-5.29165 -1.164163,-1.905 -0.529165,-2.2225 5.714982,-2.32832 21.589932,-4.33915 15.980783,-2.01083 17.779944,0.52917 -8.46664,0.42333 -17.462445,1.37583 -8.995805,1.05833 -11.747463,2.11666 -8.784139,1.48166 -1.587495,5.82081 1.693328,0.9525 4.762485,2.43416 2.328326,1.05833 6.455813,1.69333 4.127487,0.635 9.52497,0.52916 5.503316,0 11.112465,-2.53999 5.609149,-2.43416 9.101638,-7.30248 0,-0.21166 0.423332,-1.90499 0.529165,-1.5875 0.634998,-2.22249 0.211666,-0.635 0.634998,-2.54 0.423332,-1.79916 0.529165,-2.85749 0.211666,-1.16416 0.317499,-3.17499 0.211666,-2.11666 0.105833,-3.59832 -0.105833,-1.58749 -0.317499,-3.80999 -0.105833,-2.32832 -0.634998,-4.23332 -0.423332,-2.01082 -1.164163,-4.44498 -0.740831,-2.43416 -1.799161,-4.86832 Q 79.901478,136.50751 58.840711,140 q -9.948302,-2.96332 -18.203276,-9.84247 -8.254974,-6.87914 -9.736636,-10.79497 -3.915821,-4.12748 -5.714982,-11.64163 -1.693328,-7.51414 -1.375829,-14.922448 0.317499,-7.514143 1.164163,-13.546624 0.952497,-6.138314 2.11666,-8.784139 2.010827,-1.587495 4.23332,-4.127487 2.328326,-2.539992 3.915821,-3.915821 1.693328,-1.481662 4.974151,-2.963324 3.386656,-1.481662 9.419137,-2.010827 6.032481,-0.634998 15.239952,-0.317499 16.93328,3.809988 25.823252,12.382461 4.550819,4.444986 3.492489,6.561646 -0.317499,0.740831 -1.375829,0.740831 -4.23332,3.17499 -12.594127,4.127487 -8.254974,0.846664 -18.203276,0.952497 -9.842469,0 -14.287455,0.952497 z" />
    </g>
  </g>
</svg>
