<?xml version="1.0" encoding="UTF-8" standalone="no"?>
<svg
   xmlns:dc="http://purl.org/dc/elements/1.1/"
   xmlns:cc="http://creativecommons.org/ns#"
   xmlns:rdf="http://www.w3.org/1999/02/22-rdf-syntax-ns#"
   xmlns:svg="http://www.w3.org/2000/svg"
   xmlns="http://www.w3.org/2000/svg"
   xmlns:sodipodi="http://sodipodi.sourceforge.net/DTD/sodipodi-0.dtd"
   xmlns:inkscape="http://www.inkscape.org/namespaces/inkscape"
   width="210mm"
   height="297mm"
   viewBox="0 0 210 297"
   version="1.1"
   id="svg8"
   inkscape:version="1.0.2-2 (e86c870879, 2021-01-15)"
   sodipodi:docname="cvijet 2.svg">
  <defs
     id="defs2" />
  <sodipodi:namedview
     id="base"
     pagecolor="#ffffff"
     bordercolor="#666666"
     borderopacity="1.0"
     inkscape:pageopacity="0.0"
     inkscape:pageshadow="2"
     inkscape:zoom="0.98994949"
     inkscape:cx="254.2602"
     inkscape:cy="544.36328"
     inkscape:document-units="mm"
     inkscape:current-layer="layer1"
     inkscape:document-rotation="0"
     showgrid="false"
     inkscape:window-width="1920"
     inkscape:window-height="1017"
     inkscape:window-x="-8"
     inkscape:window-y="-8"
     inkscape:window-maximized="1" />
  <metadata
     id="metadata5">
    <rdf:RDF>
      <cc:Work
         rdf:about="">
        <dc:format>image/svg+xml</dc:format>
        <dc:type
           rdf:resource="http://purl.org/dc/dcmitype/StillImage" />
        <dc:title></dc:title>
      </cc:Work>
    </rdf:RDF>
  </metadata>
  <g
     inkscape:label="Layer 1"
     inkscape:groupmode="layer"
     id="layer1">
    <rect
       style="opacity:0.996;fill:#9ecff1;fill-opacity:1;stroke:#00981a;stroke-width:0;stroke-linecap:round;stroke-miterlimit:4;stroke-dasharray:none;stroke-opacity:1"
       id="rect871"
       width="208.20296"
       height="296.13461"
       x="0"
       y="-0.26726952" />
    <g
       id="g867">
      <path
         style="fill:#e794ef;fill-opacity:1;stroke:#3f2b05;stroke-width:0.264583px;stroke-linecap:butt;stroke-linejoin:miter;stroke-opacity:1"
         d="m 47.039437,86.060787 c 0,0 -13.898015,-8.819893 -12.294399,-23.786989 1.603618,-14.967092 11.49259,-22.717908 11.49259,-22.717908 0,0 9.888972,12.561669 10.156241,19.510675 0.267269,6.949009 3.207236,14.967095 -9.354432,26.994222 z"
         id="path833"
         sodipodi:nodetypes="cscsc" />
      <path
         style="fill:none;fill-opacity:0.778226;stroke:#00981a;stroke-width:5;stroke-linecap:round;stroke-linejoin:miter;stroke-miterlimit:4;stroke-dasharray:none;stroke-opacity:1"
         d="m 47.039437,86.060787 c 0,0 34.2105,44.901283 21.64883,113.322283 -12.56167,68.421 -11.49259,55.32479 -11.49259,55.32479 v 0"
         id="path857" />
      <path
         style="fill:#e794ef;fill-opacity:1;stroke:#3f2b05;stroke-width:0.264583px;stroke-linecap:butt;stroke-linejoin:miter;stroke-opacity:1"
         d="m 47.039437,86.060787 c 0,0 -14.382594,8.00539 -26.770796,-0.545511 C 7.8804426,76.964371 5.7874417,64.575414 5.7874417,64.575414 c 0,0 15.7580063,-2.696765 21.9924563,0.384103 6.234453,3.080869 14.683721,4.323035 19.259539,21.10127 z"
         id="path845"
         sodipodi:nodetypes="cscsc"
         inkscape:transform-center-x="21.216441"
         inkscape:transform-center-y="-10.161766" />
      <path
         style="fill:#eb94ef;fill-opacity:0.778226;stroke:#3f2b05;stroke-width:0.264583px;stroke-linecap:butt;stroke-linejoin:miter;stroke-opacity:1"
         d="m 47.039437,86.060787 c 0,0 -13.898015,-8.819893 -12.294399,-23.786989 1.603618,-14.967092 11.49259,-22.717908 11.49259,-22.717908 0,0 9.888972,12.561669 10.156241,19.510675 0.267269,6.949009 3.207236,14.967095 -9.354432,26.994222 z"
         id="path843"
         sodipodi:nodetypes="cscsc"
         inkscape:transform-center-x="1.0693074"
         inkscape:transform-center-y="-24.846905" />
      <path
         style="fill:#e794ef;fill-opacity:1;stroke:#3f2b05;stroke-width:0.264583px;stroke-linecap:butt;stroke-linejoin:miter;stroke-opacity:1"
         d="m 47.039437,86.060787 c 0,0 1.329031,-16.406675 15.319583,-21.960953 13.99055,-5.554274 25.456051,-0.415285 25.456051,-0.415285 0,0 -6.507714,14.602635 -12.531922,18.076687 -6.02421,3.474053 -11.749161,9.811091 -28.243712,4.299551 z"
         id="path847"
         sodipodi:nodetypes="cscsc"
         inkscape:transform-center-x="-21.192828"
         inkscape:transform-center-y="-11.360473" />
      <path
         style="fill:#e794ef;fill-opacity:1;stroke:#3f2b05;stroke-width:0.264583px;stroke-linecap:butt;stroke-linejoin:miter;stroke-opacity:1"
         d="m 47.039437,86.060787 c 0,0 14.047798,8.579304 12.702105,23.571803 -1.345701,14.99248 -11.099756,22.91241 -11.099756,22.91241 0,0 -10.103775,-12.38955 -10.490647,-19.33294 -0.38687,-6.94336 -3.464443,-14.909669 8.888298,-27.151273 z"
         id="path851"
         sodipodi:nodetypes="cscsc"
         inkscape:transform-center-x="-1.4342299"
         inkscape:transform-center-y="24.038464" />
      <path
         style="fill:#e794ef;fill-opacity:0.883064;stroke:#3f2b05;stroke-width:0.264583px;stroke-linecap:butt;stroke-linejoin:miter;stroke-opacity:1"
         d="m 47.039437,86.060787 c 0,0 3.76781,16.023383 -7.844464,25.601513 -11.612277,9.57812 -24.101416,8.20396 -24.101416,8.20396 0,0 1.714593,-15.89489 6.382702,-21.049398 4.668108,-5.1545 8.173164,-12.942173 25.563178,-12.756075 z"
         id="path849"
         sodipodi:nodetypes="cscsc"
         inkscape:transform-center-x="16.394463"
         inkscape:transform-center-y="17.34633" />
      <path
         style="fill:#e794ef;fill-opacity:0.883064;stroke:#3f2b05;stroke-width:0.264583px;stroke-linecap:butt;stroke-linejoin:miter;stroke-opacity:1"
         d="m 47.039437,86.060787 c 0,0 15.915844,-4.198933 25.803919,7.15059 9.888064,11.349523 8.851494,23.871203 8.851494,23.871203 0,0 -15.935373,-1.28495 -21.214008,-5.81223 -5.278613,-4.52727 -13.158061,-7.82086 -13.441405,-25.209563 z"
         id="path853"
         sodipodi:nodetypes="cscsc"
         inkscape:transform-center-x="-17.773453"
         inkscape:transform-center-y="15.833154" />
    </g>
    <path
       style="fill:#2fa718;stroke:#000000;stroke-width:0.264583px;stroke-linecap:butt;stroke-linejoin:miter;stroke-opacity:1;fill-opacity:1"
       d="m 72.430041,188.42501 c 18.976136,-17.90705 39.288619,-12.82893 39.288619,-12.82893 0,0 -3.74177,24.58879 -16.570708,21.9161 -12.82894,-2.6727 -22.717911,-9.08717 -22.717911,-9.08717 z"
       id="path875" />
  </g>
</svg>
